<?xml version="1.0" encoding="utf-8"?>
<!-- Generator: Adobe Illustrator 15.0.0, SVG Export Plug-In  -->
<!DOCTYPE svg PUBLIC "-//W3C//DTD SVG 1.1//EN" "http://www.w3.org/Graphics/SVG/1.1/DTD/svg11.dtd" [
	<!ENTITY ns_flows "http://ns.adobe.com/Flows/1.0/">
]>
<svg version="1.1"
	 xmlns="http://www.w3.org/2000/svg" xmlns:xlink="http://www.w3.org/1999/xlink" xmlns:a="http://ns.adobe.com/AdobeSVGViewerExtensions/3.0/"
	 x="0px" y="0px" width="1000px" height="400px" viewBox="-76.102 -47.027 1000 400"
	 overflow="visible" enable-background="new -76.102 -47.027 1000 400" xml:space="preserve">
<defs>
</defs>
<polygon points="184.622,217.312 164.757,77.836 126.603,77.836 168.573,277.628 199.862,277.628 242.982,77.836 208.258,77.836 "/>
<path d="M307.847,74.786c-32.809,0-57.992,21.37-57.992,56.472v93.717c0,35.874,25.183,57.998,57.992,57.998
	c31.675,0,57.999-22.124,57.999-57.998v-93.717C365.846,96.156,339.522,74.786,307.847,74.786z M332.273,224.975
	c0,15.645-11.065,24.423-24.426,24.423c-13.731,0-24.414-8.778-24.414-24.423v-93.717c0-16.411,10.682-24.803,24.414-24.803
	c13.361,0,24.426,8.392,24.426,24.803V224.975z"/>
<polygon points="390.266,277.628 423.841,277.628 423.841,0 390.266,11.068 "/>
<path d="M532.291,79.509c-7.497-3.089-15.822-4.723-24.551-4.723c-32.816,0-57.999,21.37-57.999,56.472v93.717
	c0,35.874,25.183,57.998,57.999,57.998c31.668,0,58.133-22.124,58.133-57.998V0l-33.582,11.068V79.509z M532.156,224.975
	c0,15.645-11.064,24.423-24.416,24.423c-13.738,0-24.424-8.778-24.424-24.423v-93.717c0-16.411,10.686-24.803,24.424-24.803
	c13.352,0,24.416,8.392,24.416,24.803V224.975z"/>
<path d="M57.999,74.786C25.184,74.786,0,96.156,0,131.258v93.717c0,35.874,25.184,57.998,57.999,57.998
	c31.669,0,57.996-22.124,57.996-57.998v-14.97l-33.576,11.42v3.55c0,15.645-11.068,24.423-24.42,24.423
	c-13.738,0-24.42-8.778-24.42-24.423v-19.567l82.416-28.016v-0.215v-45.919C115.994,96.156,89.667,74.786,57.999,74.786z
	 M82.418,158.596l-48.84,16.607v-43.945c0-16.411,10.682-24.803,24.42-24.803c13.352,0,24.42,8.392,24.42,24.803V158.596z"/>
<path d="M649.76,74.786c-32.815,0-57.999,21.37-57.999,56.472v93.717c0,35.874,25.184,57.998,57.999,57.998
	c31.669,0,57.998-22.124,57.998-57.998v-14.97l-33.581,11.42v3.55c0,15.645-11.065,24.423-24.417,24.423
	c-13.738,0-24.423-8.778-24.423-24.423V208.03l82.421-28.016v-0.208v-48.549C707.758,96.156,681.429,74.786,649.76,74.786z
	 M674.177,161.231l-48.84,16.602v-46.575c0-16.411,10.685-24.803,24.423-24.803c13.352,0,24.417,8.392,24.417,24.803V161.231z"/>
<path d="M764.874,132.021c0-15.642,8.398-25.566,22.517-25.566c13.737,0,22.891,9.542,22.891,24.803v12.678l32.814-11.151v-1.526
	c0-33.575-19.457-56.472-54.559-56.472c-33.582,0-57.238,23.273-57.238,56.852c0,59.044,81.274,60.797,81.274,93.337
	c0,16.024-8.778,24.423-25.949,24.423c-14.492,0-24.797-9.545-24.797-24.423v-14.97l-33.575,11.42v3.55
	c0,34.342,24.036,57.998,58.372,57.998c41.594,0,60.291-24.809,60.291-57.998C846.915,175.308,764.874,167.89,764.874,132.021z"/>
</svg>
